PathFileType	4	(X/Y/Z)	/Users/niels/Desktop/University/Third Semester/Perception and Action/Exam/Gymnastics Motion Tracking/Code for Gym Tracking/Analyzed Data/Start Salto/stsalto_bad_id15_1_Sports2D/stsalto_bad_id15_1_Sports2D_px_person00.trc
DataRate	CameraRate	NumFrames	NumMarkers	Units	OrigDataRate	OrigDataStartFrame	OrigNumFrames
29.85576923076923	29.85576923076923	7	22	m	29.85576923076923	26	208
Frame#	Time	Hip			RHip			RKnee			RAnkle			RBigToe			RSmallToe			RHeel			LHip			LKnee			LAnkle			LBigToe			LSmallToe			LHeel			Neck			Head			Nose			RShoulder			RElbow			RWrist			LShoulder			LElbow			LWrist		
		X1	Y1	Z1	X2	Y2	Z2	X3	Y3	Z3	X4	Y4	Z4	X5	Y5	Z5	X6	Y6	Z6	X7	Y7	Z7	X8	Y8	Z8	X9	Y9	Z9	X10	Y10	Z10	X11	Y11	Z11	X12	Y12	Z12	X13	Y13	Z13	X14	Y14	Z14	X15	Y15	Z15	X16	Y16	Z16	X17	Y17	Z17	X18	Y18	Z18	X19	Y19	Z19	X20	Y20	Z20	X21	Y21	Z21	X22	Y22	Z22
26	0.8708534621578099	0.6820345955113422	-0.5135022850451978	0.0	0.6686972988912209	-0.5095754354408707	0.0	0.673129438942305	-0.6470404498614094	0.0	0.62813161612128	-0.7697902878196732	0.0	0.6540694133970391	-0.816223037611833	0.0	0.6409947428745395	-0.8155883432058348	0.0	0.6162883307508722	-0.7814077742016111	0.0	0.701900510953542	-0.5206064381498706	0.0	0.696402830928276	-0.6494283063125188	0.0	0.6534236612627526	-0.7681104493398866	0.0	0.6750887430085817	-0.8113051184340421	0.0	0.676717758434962	-0.806512013925699	0.0	0.6442106227423089	-0.7810991444531107	0.0	0.8035907377664568	-0.4455221572368651	0.0	0.8893745510726921	-0.47017942803837315	0.0	0.8387061533342832	-0.48756508791016945	0.0	0.7851846109108128	-0.4416396521254058	0.0	0.796086463127672	-0.5266080925670324	0.0	0.847421908463919	-0.5839526518561323	0.0	0.8074989326230599	-0.4414332262416267	0.0	0.8294889357936741	-0.5204654914104258	0.0	0.8701951932819146	-0.5757784591441683	0.0
27	0.9043478260869565	0.6922628553384601	-0.5031484272408383	0.0	0.6788626688459859	-0.49881146937503557	0.0	0.6739720417194957	-0.6362581716343992	0.0	0.6303407221654217	-0.759321877107163	0.0	0.6536633696188149	-0.8100402216178957	0.0	0.6402234616717182	-0.8088252710970479	0.0	0.6188355168200276	-0.7704712092478829	0.0	0.7112436740111882	-0.5107596505232446	0.0	0.6971706687404826	-0.6389353615017545	0.0	0.6563169733026032	-0.7586582862835789	0.0	0.6724831790724692	-0.8046223406753754	0.0	0.676314607568498	-0.7996909908406122	0.0	0.6471126832573355	-0.7708132382648217	0.0	0.8201123018713523	-0.44579425630933445	0.0	0.9021646336254038	-0.4783892484625508	0.0	0.8501759327115676	-0.4914017573400743	0.0	0.8011557533052172	-0.44114892897372904	0.0	0.8001518125626063	-0.5272347301464605	0.0	0.8492094593885049	-0.5863095022868013	0.0	0.8230028472877912	-0.4423537950824962	0.0	0.835787595718516	-0.5231287255589336	0.0	0.8730767988206816	-0.5789127218388889	0.0
28	0.937842190016103	0.7017822201278024	-0.4938422298652123	0.0	0.6882716528890861	-0.4889055667980392	0.0	0.6762529557578701	-0.625630051623285	0.0	0.6318657875749528	-0.7481584318312597	0.0	0.6522992489226108	-0.8024223987980955	0.0	0.6387423927143577	-0.8005242149915429	0.0	0.6201134354527056	-0.7584821459467468	0.0	0.7200233975571565	-0.5018144045970798	0.0	0.6993947089635486	-0.6289463769715459	0.0	0.6584691748473859	-0.7482751714999236	0.0	0.6689585248690667	-0.7962963196075774	0.0	0.6748582486064453	-0.7910597274796628	0.0	0.6490130329789017	-0.7593704922174936	0.0	0.8347474014412278	-0.4466236565957409	0.0	0.912919122224028	-0.4859617039953029	0.0	0.8599520980738474	-0.4948673696533708	0.0	0.8152297153029286	-0.44067607577421414	0.0	0.8029073004785386	-0.5268136063755304	0.0	0.8504767996906126	-0.5871419928113539	0.0	0.8366772605250652	-0.4441279835604547	0.0	0.8408238451928305	-0.5252178794464116	0.0	0.8754285628900524	-0.5806843150385441	0.0
29	0.9713365539452495	0.7105680348155854	-0.48559424553858754	0.0	0.6969973052592676	-0.47994599370814556	0.0	0.6798883830813458	-0.6156489702541573	0.0	0.6324173031867898	-0.73670566429424	0.0	0.6499927989664454	-0.7934733910909098	0.0	0.6364875377434461	-0.7908296230571953	0.0	0.6199077040273298	-0.7460023574822462	0.0	0.7282002623655843	-0.493863176952968	0.0	0.7029921573518049	-0.6198244705323106	0.0	0.6595985150146324	-0.7374203339167665	0.0	0.6647043314944219	-0.7866310705229383	0.0	0.67229033032556	-0.7810101568215851	0.0	0.6496660091583846	-0.747561215435051	0.0	0.8473098169020542	-0.4478598218910966	0.0	0.9218606961007012	-0.4927504946707962	0.0	0.8682912527391277	-0.4980053135569211	0.0	0.8274848628842386	-0.4402366587009941	0.0	0.8049767721513281	-0.5255012101176172	0.0	0.8513174345376626	-0.587033629161763	0.0	0.8483639020650008	-0.4461242996469709	0.0	0.8449659324698822	-0.5267333528139648	0.0	0.8772504591712029	-0.5816971063015379	0.0
30	1.0048309178743962	0.7187881360328855	-0.47825599500206156	0.0	0.70523580323742	-0.4719119051514419	0.0	0.6847019197081059	-0.6065937004111531	0.0	0.6319790859330348	-0.7251898682580582	0.0	0.6467632958974087	-0.783540472350316	0.0	0.6334230016227583	-0.7800974990377295	0.0	0.6183648402348036	-0.7334897300998189	0.0	0.7358667741123754	-0.4868053270130807	0.0	0.7076797956824544	-0.611626713703856	0.0	0.6596891785819402	-0.7265146011414871	0.0	0.6597585363429702	-0.776178554189427	0.0	0.6686107098025128	-0.7703103926616046	0.0	0.6491082520781437	-0.7360941440271701	0.0	0.8579926425298461	-0.44933308268553185	0.0	0.9292898262225133	-0.4987917838335334	0.0	0.8755674432195083	-0.5010148629265795	0.0	0.8382301177701564	-0.43996348608584707	0.0	0.8069191985068006	-0.5235876454650921	0.0	0.8520035953863467	-0.5864938357331515	0.0	0.858254535858219	-0.44779569625542925	0.0	0.8484932317886392	-0.5277012358018531	0.0	0.8784857205184928	-0.5823290427114807	0.0
31	1.0383252818035427	0.7266916016670278	-0.471532825937482	0.0	0.713234269201931	-0.46466316108668887	0.0	0.6905213399742108	-0.5985247081534527	0.0	0.630784187833649	-0.71365397346092	0.0	0.6426767314962227	-0.7729888960688921	0.0	0.6296661478876556	-0.7687140783379509	0.0	0.6159083695258217	-0.7211355438815156	0.0	0.7431686526482675	-0.48039789821120893	0.0	0.7130897997918869	-0.6042124449988108	0.0	0.65889105930149	-0.7157407322013697	0.0	0.6541930858749053	-0.7654382402733568	0.0	0.6639381503367947	-0.7596266370940018	0.0	0.647518159243799	-0.7252491356633759	0.0	0.8671393312867145	-0.4509317447790655	0.0	0.9354955744249793	-0.5042172595002004	0.0	0.8820560067876557	-0.5041089954207753	0.0	0.8478567331594817	-0.44003598381859355	0.0	0.8091549344724496	-0.5214235442314415	0.0	0.8529941099129035	-0.58580804601799	0.0	0.8667370148962364	-0.4489420126076225	0.0	0.8515607648880695	-0.5282999187130224	0.0	0.879134136733695	-0.5828251901288327	0.0
32	1.0718196457326892	0.734413792241916	-0.4650976477855325	0.0	0.7211589007148291	-0.45806409735923376	0.0	0.6972040504877902	-0.5913824844829652	0.0	0.629275743411419	-0.70200505298997	0.0	0.6379388245832467	-0.762013527874225	0.0	0.6255276233238282	-0.7569438319545876	0.0	0.6130896203128872	-0.7088409812434058	0.0	0.7501213963524777	-0.474345145522171	0.0	0.7188612305134877	-0.5973751229566311	0.0	0.6574531121605309	-0.704960879241586	0.0	0.6483635862227534	-0.7545869184356105	0.0	0.6585975730336514	-0.7491586015222875	0.0	0.6450591014924727	-0.7147581699326528	0.0	0.8749824015894142	-0.4526091551148919	0.0	0.9407212584221243	-0.5091113852001368	0.0	0.8879050937525668	-0.5072402283643539	0.0	0.8567218890536703	-0.4405384527747439	0.0	0.811956335651995	-0.519332063804871	0.0	0.8547375965826453	-0.5850830176172302	0.0	0.8741358709022627	-0.4497746333125221	0.0	0.8541128943631803	-0.5287507035471888	0.0	0.8792315760712496	-0.5834287155456049	0.0
